Coordinates
version=1
nRows=7
nColumns=40
inDegrees=yes

Units are S.I. units (second, meters, Newtons, ...)
Angles are in degrees.

endheader
time	pelvis_tilt	pelvis_list	pelvis_rotation	pelvis_tx	pelvis_ty	pelvis_tz	hip_flexion_r	hip_adduction_r	hip_rotation_r	knee_angle_r	knee_angle_r_beta	ankle_angle_r	subtalar_angle_r	mtp_angle_r	hip_flexion_l	hip_adduction_l	hip_rotation_l	knee_angle_l	knee_angle_l_beta	ankle_angle_l	subtalar_angle_l	mtp_angle_l	lumbar_extension	lumbar_bending	lumbar_rotation	arm_flex_r	arm_add_r	arm_rot_r	elbow_flex_r	pro_sup_r	wrist_flex_r	wrist_dev_r	arm_flex_l	arm_add_l	arm_rot_l	elbow_flex_l	pro_sup_l	wrist_flex_l	wrist_dev_l
     25.15314286	     -1.32212482	     -5.57032804	     -7.00095960	      0.95265531	      0.92615643	      0.44579058	     27.37609699	     -4.11365878	     -7.80611976	     52.08341930	     52.08341930	     10.12426672	    -19.01250141	     13.58159967	     13.39202441	     -4.20401121	     -6.51628316	     28.83681790	     28.83681790	     18.84762717	    -17.06889996	      5.91547360	    -11.84004868	      6.03604922	      2.24359196	      4.73052597	    -13.41380438	     -0.94060191	     31.38277600	     46.51870451	      0.00000000	      0.00000000	     23.98127507	    -15.88877435	     -1.03967709	     52.02629712	     46.64889460	      0.00000000	      0.00000000
     25.17128571	     -1.42535160	     -5.62171492	     -7.29648362	      0.95172223	      0.92602522	      0.44590670	     27.78719120	     -3.75116285	     -7.91946635	     49.12793310	     49.12793310	      8.71353666	    -18.81540842	      9.45291831	     13.05789157	     -4.28209725	     -6.81891430	     28.72304402	     28.72304402	     19.20478407	    -16.92269634	      5.98074055	    -11.88999357	      6.27370713	      1.58802066	      3.47822650	    -13.13046559	     -2.59666866	     28.53798203	     46.71551342	      0.00000000	      0.00000000	     23.94272026	    -16.30646533	     -2.81567809	     54.95814749	     46.84374943	      0.00000000	      0.00000000
     25.18942857	     -1.58503001	     -5.77923147	     -7.56015612	      0.95081565	      0.92630513	      0.44637001	     28.16266310	     -3.11606206	     -7.81875606	     46.11569054	     46.11569054	      8.48835260	    -18.31356291	      9.30184117	     12.65137817	     -4.47685025	     -7.05259286	     28.36735870	     28.36735870	     19.35858827	    -16.77824912	      5.94771261	    -11.86473849	      6.62539954	      1.38920139	      1.37848450	    -13.40399374	     -2.79095042	     27.52215894	     46.75102211	      0.00000000	      0.00000000	     24.79687788	    -16.59599044	     -3.16254041	     55.93793487	     46.89406903	      0.00000000	      0.00000000
     25.20757143	     -1.69052953	     -5.81926746	     -7.83414850	      0.95022769	      0.92689231	      0.44701307	     28.05057572	     -2.71971958	     -7.95458361	     42.39104409	     42.39104409	      6.38199347	    -17.89645561	      3.16633912	     12.01744722	     -4.57736123	     -7.53685253	     27.71359237	     27.71359237	     19.20121467	    -16.49880515	      5.09964841	    -11.93411516	      6.81812486	      1.28172001	     -0.44849021	    -13.23179166	     -5.85173864	     25.99575767	     46.97136895	      0.00000000	      0.00000000	     25.12933324	    -16.78824892	     -4.43254223	     58.74030197	     47.05287644	      0.00000000	      0.00000000
     25.22571429	     -1.87696515	     -5.85186813	     -8.09500849	      0.94977852	      0.92768176	      0.44795910	     28.03853219	     -2.24645099	     -7.89381123	     38.94494022	     38.94494022	      5.99653929	    -16.59044635	      2.14713298	     11.36205868	     -4.67032646	     -7.98642406	     26.87989673	     26.87989673	     19.18975274	    -16.06185909	      4.76159645	    -11.85463962	      6.99177363	      1.31468077	     -2.71941912	    -13.46256693	     -6.55294263	     25.65036126	     47.00329875	      0.00000000	      0.00000000	     25.65481814	    -17.01970362	     -4.82541414	     60.89808592	     47.12274096	      0.00000000	      0.00000000
     25.24385714	     -2.01807709	     -5.91314523	     -8.29832016	      0.94955610	      0.92877508	      0.44909432	     27.76012045	     -1.81249838	     -7.98268848	     35.40917774	     35.40917774	      5.88848471	    -14.60993614	      1.86455702	     10.56285397	     -4.75772241	     -8.33928543	     25.88982670	     25.88982670	     19.14384730	    -15.68702332	      4.67059865	    -11.77338778	      7.22424128	      1.08459716	     -4.65337104	    -13.65333502	     -6.89041649	     25.25901413	     47.02256514	      0.00000000	      0.00000000	     26.28618792	    -17.50259525	     -5.17253512	     62.19604973	     47.17561548	      0.00000000	      0.00000000
     25.26200000	     -2.15345658	     -5.93091579	     -8.51544003	      0.94960767	      0.92991584	      0.45045066	     27.33530318	     -1.46453104	     -8.16140119	     31.91244548	     31.91244548	      5.76177828	    -12.16183828	      1.57708690	      9.62780766	     -4.78785425	     -8.74354704	     24.68905910	     24.68905910	     19.08806809	    -15.15299236	      4.46218978	    -11.62838178	      7.34677965	      0.95672216	     -6.65708251	    -13.82971549	     -7.29129345	     25.08392911	     47.03697676	      0.00000000	      0.00000000	     26.77943722	    -17.81182627	     -5.50485175	     63.89542660	     47.23245009	      0.00000000	      0.00000000
